<?xml version="1.0" encoding="iso-8859-1"?>
<!-- Uploaded to: SVG Repo, www.svgrepo.com, Generator: SVG Repo Mixer Tools -->
<svg height="800px" width="800px" version="1.1" id="Layer_1" xmlns="http://www.w3.org/2000/svg" xmlns:xlink="http://www.w3.org/1999/xlink" 
	 viewBox="0 0 512.001 512.001" xml:space="preserve">
<g>
	<path style="fill:#FEA921;" d="M317.121,31.022c-4.432-13.592-17.106-22.788-31.401-22.788h-59.438
		c-14.295,0-26.969,9.197-31.401,22.788l-8.321,25.517l-9.498,29.123L58.787,448.348h394.426L317.121,31.022z"/>
	<path style="fill:#FEA921;" d="M491.865,503.766H20.135c-6.093,0-11.034-4.94-11.034-11.034v-33.351
		c0-6.093,4.94-11.034,11.034-11.034h471.732c6.093,0,11.033,4.94,11.033,11.034v33.351
		C502.899,498.827,497.959,503.766,491.865,503.766z"/>
</g>
<path style="fill:#E58200;" d="M491.865,478.253H20.135c-6.093,0-11.034-4.94-11.034-11.033v27.709
	c0,6.093,4.939,11.033,11.034,11.033h471.732c6.093,0,11.033-4.94,11.033-11.033v-27.709
	C502.899,473.314,497.959,478.253,491.865,478.253z"/>
<g>
	<path style="fill:#F2F2F2;" d="M115.816,273.473L327.239,62.05l-10.118-31.028c-3.247-9.958-10.927-17.539-20.419-20.89
		L155.716,151.117L115.816,273.473z"/>
	<polygon style="fill:#F2F2F2;" points="372.12,199.679 351.844,137.501 67.397,421.948 58.787,448.348 123.451,448.348 	"/>
	<polygon style="fill:#F2F2F2;" points="417.002,337.309 396.726,275.131 223.508,448.348 305.963,448.348 	"/>
</g>
<path style="fill:#E58200;" d="M317.121,31.022c-4.432-13.592-17.106-22.788-31.401-22.788h-30.388
	c14.295,0,26.969,9.197,31.401,22.788l118.863,364.492c3.611,11.074-4.642,22.447-16.29,22.447H68.697l-9.909,30.388h364.038h30.388
	L317.121,31.022z"/>
<g>
	<path style="fill:#CCCCCC;" d="M316.292,28.789c-0.089-0.218-0.183-0.433-0.277-0.649c-0.233-0.537-0.479-1.066-0.738-1.586
		c-0.102-0.205-0.201-0.414-0.307-0.617c-0.35-0.669-0.718-1.325-1.11-1.963c-0.106-0.173-0.223-0.338-0.333-0.509
		c-0.301-0.469-0.61-0.93-0.933-1.382c-0.181-0.254-0.367-0.504-0.556-0.753c-0.277-0.366-0.563-0.721-0.854-1.074
		c-0.203-0.246-0.401-0.496-0.612-0.736c-0.437-0.5-0.889-0.984-1.355-1.455c-0.282-0.285-0.576-0.558-0.868-0.831
		c-0.235-0.221-0.471-0.44-0.712-0.654c-0.33-0.292-0.664-0.581-1.006-0.86c-0.189-0.155-0.383-0.302-0.574-0.452
		c-1.27-0.991-2.609-1.893-4.01-2.691c-0.133-0.076-0.267-0.152-0.401-0.225c-1.58-0.87-3.232-1.617-4.946-2.222l-13.47,13.47
		c1.446,2.285,2.635,4.765,3.501,7.42l17.591,53.942l22.915-22.915l-6.262-19.204L317.12,31.02
		C316.873,30.263,316.59,29.52,316.292,28.789z"/>
	<polygon style="fill:#CCCCCC;" points="153.839,417.962 71.384,417.962 67.397,421.948 58.787,448.348 123.451,448.348 	"/>
	<polygon style="fill:#CCCCCC;" points="328.929,160.416 349.206,222.594 372.12,199.679 351.844,137.501 	"/>
	<polygon style="fill:#CCCCCC;" points="336.35,417.962 253.895,417.962 223.507,448.348 305.963,448.348 	"/>
	<polygon style="fill:#CCCCCC;" points="373.811,298.045 394.087,360.224 417.002,337.309 396.726,275.131 	"/>
</g>
<path style="fill:#1A1A1A;" d="M491.865,440.115h-32.677L324.948,28.47C319.395,11.441,303.63,0,285.72,0H226.28
	c-17.911,0-33.676,11.441-39.229,28.47l-14.596,44.758c-1.41,4.323,0.952,8.971,5.276,10.381c4.324,1.405,8.971-0.952,10.381-5.276
	l14.596-44.759c3.336-10.231,12.809-17.106,23.571-17.106h59.439c10.762,0,20.236,6.875,23.572,17.107l132.576,406.54H135.029
	c-4.548,0-8.234,3.686-8.234,8.234c0,4.548,3.686,8.234,8.234,8.234h318.156c0.009,0,0.018,0.002,0.027,0.002
	s0.019-0.002,0.027-0.002h38.626c1.544,0,2.8,1.256,2.8,2.8v33.351c0,1.544-1.256,2.8-2.8,2.8H20.135c-1.544,0-2.8-1.256-2.8-2.8
	v-33.351c0-1.544,1.256-2.8,2.8-2.8h38.627c0.009,0,0.019,0.002,0.027,0.002c0.009,0,0.018-0.002,0.027-0.002h45.612
	c4.548,0,8.234-3.686,8.234-8.234c0-4.548-3.686-8.234-8.234-8.234H70.134l108.333-332.201c1.41-4.323-0.952-8.972-5.276-10.381
	c-4.321-1.407-8.97,0.951-10.381,5.276L52.812,440.115H20.135c-10.624,0-19.267,8.643-19.267,19.267v33.351
	c0,10.624,8.643,19.267,19.267,19.267h471.732c10.624,0,19.267-8.643,19.267-19.267v-33.351
	C511.133,448.759,502.489,440.115,491.865,440.115z"/>
</svg>