<?xml version="1.0" encoding="utf-8"?><!-- Uploaded to: SVG Repo, www.svgrepo.com, Generator: SVG Repo Mixer Tools -->
<svg width="800px" height="800px" viewBox="0 0 36 36" xmlns="http://www.w3.org/2000/svg" xmlns:xlink="http://www.w3.org/1999/xlink" aria-hidden="true" role="img" class="iconify iconify--twemoji" preserveAspectRatio="xMidYMid meet"><path fill="#31373D" d="M27 32a4 4 0 0 1-4 4H13a4 4 0 0 1-4-4V4a4 4 0 0 1 4-4h10a4 4 0 0 1 4 4v28z"></path><path fill="#77B255" d="M17.999 25a4 4 0 1 1 0 8a4 4 0 0 1 0-8z"></path><path fill="#FFCC4D" d="M17.999 14a4 4 0 1 1 0 8a4 4 0 0 1 0-8z"></path><path fill="#DD2E44" d="M17.999 3a4 4 0 1 1 0 8a4 4 0 0 1 0-8z"></path></svg>